<?xml version="1.0" encoding="UTF-8"?>
<svg id="Layer_1" xmlns="http://www.w3.org/2000/svg" viewBox="0 0 1732.88 743">
  <defs>
    <style>
      .cls-1, .cls-2 {
        fill: #053;
        stroke: #053;
        stroke-miterlimit: 10;
      }

      .cls-2 {
        stroke-width: 5px;
      }
    </style>
  </defs>
  <text/>
  <text/>
  <g>
    <path class="cls-2" d="M303.49,414.94h-32.77v81.81h-56.57v-247.92h117.62c17.47,0,32.77,3.49,45.88,10.45,13.11,6.97,23.22,16.82,30.35,29.57,7.12,12.75,10.69,27.39,10.69,43.92,0,18.89-4.78,35.06-14.31,48.52-9.55,13.46-23.06,23.02-40.53,28.69l68.3,86.77h-67.26l-61.4-81.81ZM352.99,307.63c-6.55-6.14-15.81-9.21-27.77-9.21h-54.84v69.77h54.84c12.19,0,21.5-3.01,27.94-9.03,6.44-6.02,9.66-14.58,9.66-25.68s-3.28-19.71-9.83-25.85Z"/>
    <path class="cls-1" d="M488.29,488.79c-17.89-9.02-31.63-21.6-41.23-37.71-9.6-16.11-14.4-34.86-14.4-56.25s4.8-40.14,14.4-56.25c9.6-16.11,23.34-28.68,41.23-37.71,17.89-9.02,38.75-13.54,62.61-13.54s44.79,4.52,62.83,13.54c18.03,9.03,31.85,21.6,41.45,37.71,9.6,16.11,14.4,34.86,14.4,56.25s-4.8,40.14-14.4,56.25c-9.6,16.11-23.42,28.69-41.45,37.71-18.04,9.02-38.98,13.54-62.83,13.54s-44.72-4.52-62.61-13.54ZM587.54,432.33c9.3-9.72,13.96-22.22,13.96-37.5s-4.66-27.77-13.96-37.5c-9.31-9.72-21.53-14.58-36.65-14.58s-26.91,4.86-36.21,14.58c-9.31,9.73-13.96,22.23-13.96,37.5s4.65,27.78,13.96,37.5c9.3,9.73,21.38,14.58,36.21,14.58s27.34-4.86,36.65-14.58Z"/>
    <path class="cls-1" d="M843.65,489.83c-16.87,8.05-35.93,12.08-57.15,12.08-23.56,0-42.18-6.32-55.85-18.96-13.67-12.64-20.51-32.98-20.51-61.04v-77.92h-36.65v-52.08h36.65l.4-44.25,67.66-7v51.25h53.66v52.08h-53.66v77.92c0,8.33,2.18,14.52,6.54,18.54,4.36,4.03,10.32,6.04,17.89,6.04,8.43,0,16.72-1.94,24.87-5.83l16.14,49.17Z"/>
    <path class="cls-1" d="M1020.35,298.04c17.16,8.48,30.32,20.42,39.48,35.83s13.74,33.4,13.74,53.96c0,6.67-.73,14.86-2.18,24.58h-158.37c2.03,10.56,8,19.1,17.89,25.62,9.88,6.53,22.54,9.79,37.96,9.79,10.76,0,21.23-1.52,31.41-4.58,10.18-3.05,18.9-7.36,26.18-12.92l35.78,36.67c-12.22,10.83-26.69,19.17-43.41,25-16.73,5.83-34.54,8.75-53.45,8.75-25.02,0-46.68-4.38-65.01-13.12s-32.44-21.18-42.32-37.29c-9.89-16.11-14.83-35.14-14.83-57.08s4.87-39.86,14.62-56.25c9.74-16.39,23.34-29.1,40.79-38.12,17.45-9.02,37.66-13.54,60.64-13.54s43.92,4.24,61.08,12.71ZM928.07,347c-8.58,6.67-13.46,15.98-14.62,27.92h95.11c-.87-11.94-5.45-21.25-13.74-27.92-8.29-6.67-19.42-10-33.38-10s-24.8,3.33-33.38,10Z"/>
    <path class="cls-1" d="M1260.99,298.04c17.16,8.48,30.32,20.42,39.48,35.83s13.74,33.4,13.74,53.96c0,6.67-.73,14.86-2.18,24.58h-158.37c2.03,10.56,8,19.1,17.89,25.62,9.88,6.53,22.54,9.79,37.96,9.79,10.76,0,21.23-1.52,31.41-4.58,10.18-3.05,18.9-7.36,26.18-12.92l35.78,36.67c-12.22,10.83-26.69,19.17-43.41,25-16.73,5.83-34.54,8.75-53.45,8.75-25.02,0-46.68-4.38-65.01-13.12s-32.44-21.18-42.32-37.29c-9.89-16.11-14.83-35.14-14.83-57.08s4.87-39.86,14.62-56.25c9.74-16.39,23.34-29.1,40.79-38.12,17.45-9.02,37.66-13.54,60.64-13.54s43.92,4.24,61.08,12.71ZM1168.72,347c-8.58,6.67-13.46,15.98-14.62,27.92h95.11c-.87-11.94-5.45-21.25-13.74-27.92-8.29-6.67-19.42-10-33.38-10s-24.8,3.33-33.38,10Z"/>
    <path class="cls-1" d="M1423.62,444.67h95.11v57.08h-192.84v-21.67l92.49-128.75h-84.2v-55.42h181.5v20.83l-92.06,127.92Z"/>
  </g>
</svg>